<?xml version="1.0" encoding="utf-8"?>
<!-- Generator: Adobe Illustrator 16.0.0, SVG Export Plug-In . SVG Version: 6.00 Build 0)  -->
<!DOCTYPE svg PUBLIC "-//W3C//DTD SVG 1.1//EN" "http://www.w3.org/Graphics/SVG/1.1/DTD/svg11.dtd">
<svg version="1.1" id="Add-user" xmlns="http://www.w3.org/2000/svg" xmlns:xlink="http://www.w3.org/1999/xlink" x="0px" y="0px"
	 width="48px" height="48px" viewBox="0 0 48 48" enable-background="new 0 0 48 48" xml:space="preserve">
<g>
	<path fill="#EFEFEF" stroke="#EFEFEF" stroke-width="2" stroke-linejoin="bevel" stroke-miterlimit="10" d="M34.75,33.238v5.012
		h-25v-5.012h1.266c2.016-0.834,6.297-1.408,11.234-1.408c4.938,0,9.219,0.574,11.235,1.408H34.75z"/>
	<path fill="#EFEFEF" stroke="#EFEFEF" stroke-linejoin="bevel" stroke-miterlimit="10" d="M28.5,21.736
		c0,3.418-2.801,7.105-6.25,7.105l0,0c-3.451,0-6.25-3.688-6.25-7.105v-2.299c0-3.417,2.799-6.188,6.25-6.188l0,0
		c3.449,0,6.25,2.77,6.25,6.188V21.736z"/>
	<defs>
		<filter id="Adobe_OpacityMaskFilter" filterUnits="userSpaceOnUse" x="30.25" y="9.75" width="8" height="8">
			
				<feColorMatrix  type="matrix" values="-1 0 0 0 1  0 -1 0 0 1  0 0 -1 0 1  0 0 0 1 0" color-interpolation-filters="sRGB" result="source"/>
			<feFlood  style="flood-color:white;flood-opacity:1" result="back"/>
			<feBlend  in="source" in2="back" mode="normal"/>
		</filter>
	</defs>
	<mask maskUnits="userSpaceOnUse" x="30.25" y="9.75" width="8" height="8" id="SVGID_1_">
		<g filter="url(#Adobe_OpacityMaskFilter)">
			<g>
				<line fill="none" stroke="#FFFFFF" stroke-width="2" stroke-miterlimit="10" x1="34.25" y1="16.75" x2="34.25" y2="10.75"/>
				<line fill="none" stroke="#FFFFFF" stroke-width="2" stroke-miterlimit="10" x1="31.25" y1="13.75" x2="37.25" y2="13.75"/>
			</g>
		</g>
	</mask>
	<circle mask="url(#SVGID_1_)" fill="#EFEFEF" cx="34.25" cy="13.75" r="4"/>
</g>
</svg>
