<?xml version="1.0" encoding="utf-8"?>
<!-- Generator: Adobe Illustrator 16.0.0, SVG Export Plug-In . SVG Version: 6.00 Build 0)  -->
<!DOCTYPE svg PUBLIC "-//W3C//DTD SVG 1.1//EN" "http://www.w3.org/Graphics/SVG/1.1/DTD/svg11.dtd">
<svg version="1.1" id="Community" xmlns="http://www.w3.org/2000/svg" xmlns:xlink="http://www.w3.org/1999/xlink" x="0px" y="0px"
	 width="48px" height="48px" viewBox="0 0 48 48" enable-background="new 0 0 48 48" xml:space="preserve">
<g>
	<g>
		<path fill="#EFEFEF" stroke="#EFEFEF" stroke-width="2" stroke-linejoin="bevel" stroke-miterlimit="10" d="M32.75,31.488V36.5
			h-25v-5.012h1.266c2.016-0.834,6.297-1.408,11.234-1.408c4.938,0,9.219,0.574,11.235,1.408H32.75z"/>
		<path fill="#EFEFEF" stroke="#EFEFEF" stroke-linejoin="bevel" stroke-miterlimit="10" d="M26.5,19.986
			c0,3.418-2.801,7.105-6.25,7.105l0,0c-3.451,0-6.25-3.688-6.25-7.105v-2.299c0-3.418,2.799-6.188,6.25-6.188l0,0
			c3.449,0,6.25,2.77,6.25,6.188V19.986z"/>
	</g>
	<g>
		<path fill="#EFEFEF" d="M40.25,28.64v4.011h-5.632l-0.053-1.441l-1.229-1.069c-2.054-0.84-6.404-1.409-11.428-1.409
			c-0.681,0-0.966-0.091-0.966-0.091c1.647-0.67,5.124-1.13,9.141-1.13c4.016,0,7.502,0.46,9.14,1.13H40.25z"/>
		<path fill="#EFEFEF" d="M34.504,19.569l0.002,1.84c0.002,2.731-2.236,5.682-4.997,5.683c-1.369,0.002-2.61-0.727-3.51-1.786
			c1.067-1.331,1.718-3.042,1.716-4.691c0,0,0.201-4.24-0.248-5.554c0.75-0.451,1.093-0.437,2.032-0.438
			c1.382-0.001,2.632,0.557,3.542,1.447C33.943,16.97,34.502,18.199,34.504,19.569z"/>
	</g>
</g>
</svg>
